<svg width="52" height="48" viewBox="0 0 52 48" fill="none" xmlns="http://www.w3.org/2000/svg">
<path d="M16.0604 24C13.1354 24.0893 10.7431 25.2321 8.88333 27.4286H5.25417C3.77361 27.4286 2.52778 27.067 1.51667 26.3438C0.505556 25.6205 0 24.5625 0 23.1696C0 16.8661 1.11944 13.7143 3.35833 13.7143C3.46667 13.7143 3.85938 13.9018 4.53646 14.2768C5.21354 14.6518 6.09375 15.0312 7.17708 15.4152C8.26042 15.7991 9.33472 15.9911 10.4 15.9911C11.6097 15.9911 12.8104 15.7857 14.0021 15.375C13.9118 16.0357 13.8667 16.625 13.8667 17.1429C13.8667 19.625 14.5979 21.9107 16.0604 24ZM45.0667 41.0625C45.0667 43.2054 44.4076 44.8973 43.0896 46.1384C41.7715 47.3795 40.0201 48 37.8354 48H14.1646C11.9799 48 10.2285 47.3795 8.91042 46.1384C7.59236 44.8973 6.93333 43.2054 6.93333 41.0625C6.93333 40.1161 6.96493 39.192 7.02813 38.2902C7.09132 37.3884 7.21771 36.4152 7.40729 35.3705C7.59688 34.3259 7.83611 33.3571 8.125 32.4643C8.41389 31.5714 8.80208 30.7009 9.28958 29.8527C9.77708 29.0045 10.3368 28.2812 10.9688 27.683C11.6007 27.0848 12.3726 26.6071 13.2844 26.25C14.1962 25.8929 15.2028 25.7143 16.3042 25.7143C16.4847 25.7143 16.8729 25.9062 17.4688 26.2902C18.0646 26.6741 18.7236 27.1027 19.4458 27.5759C20.1681 28.0491 21.134 28.4777 22.3438 28.8616C23.5535 29.2455 24.7722 29.4375 26 29.4375C27.2278 29.4375 28.4465 29.2455 29.6562 28.8616C30.866 28.4777 31.8319 28.0491 32.5542 27.5759C33.2764 27.1027 33.9354 26.6741 34.5312 26.2902C35.1271 25.9062 35.5153 25.7143 35.6958 25.7143C36.7972 25.7143 37.8038 25.8929 38.7156 26.25C39.6274 26.6071 40.3993 27.0848 41.0312 27.683C41.6632 28.2812 42.2229 29.0045 42.7104 29.8527C43.1979 30.7009 43.5861 31.5714 43.875 32.4643C44.1639 33.3571 44.4031 34.3259 44.5927 35.3705C44.7823 36.4152 44.9087 37.3884 44.9719 38.2902C45.0351 39.192 45.0667 40.1161 45.0667 41.0625ZM17.3333 6.85714C17.3333 8.75 16.6562 10.3661 15.3021 11.7054C13.9479 13.0446 12.3139 13.7143 10.4 13.7143C8.48611 13.7143 6.85208 13.0446 5.49792 11.7054C4.14375 10.3661 3.46667 8.75 3.46667 6.85714C3.46667 4.96429 4.14375 3.34821 5.49792 2.00893C6.85208 0.669643 8.48611 0 10.4 0C12.3139 0 13.9479 0.669643 15.3021 2.00893C16.6562 3.34821 17.3333 4.96429 17.3333 6.85714ZM36.4 17.1429C36.4 19.9821 35.3844 22.4062 33.3531 24.4152C31.3219 26.4241 28.8708 27.4286 26 27.4286C23.1292 27.4286 20.6781 26.4241 18.6469 24.4152C16.6156 22.4062 15.6 19.9821 15.6 17.1429C15.6 14.3036 16.6156 11.8795 18.6469 9.87054C20.6781 7.86161 23.1292 6.85714 26 6.85714C28.8708 6.85714 31.3219 7.86161 33.3531 9.87054C35.3844 11.8795 36.4 14.3036 36.4 17.1429ZM52 23.1696C52 24.5625 51.4944 25.6205 50.4833 26.3438C49.4722 27.067 48.2264 27.4286 46.7458 27.4286H43.1167C41.2569 25.2321 38.8646 24.0893 35.9396 24C37.4021 21.9107 38.1333 19.625 38.1333 17.1429C38.1333 16.625 38.0882 16.0357 37.9979 15.375C39.1896 15.7857 40.3903 15.9911 41.6 15.9911C42.6653 15.9911 43.7396 15.7991 44.8229 15.4152C45.9062 15.0312 46.7865 14.6518 47.4635 14.2768C48.1406 13.9018 48.5333 13.7143 48.6417 13.7143C50.8806 13.7143 52 16.8661 52 23.1696ZM48.5333 6.85714C48.5333 8.75 47.8563 10.3661 46.5021 11.7054C45.1479 13.0446 43.5139 13.7143 41.6 13.7143C39.6861 13.7143 38.0521 13.0446 36.6979 11.7054C35.3438 10.3661 34.6667 8.75 34.6667 6.85714C34.6667 4.96429 35.3438 3.34821 36.6979 2.00893C38.0521 0.669643 39.6861 0 41.6 0C43.5139 0 45.1479 0.669643 46.5021 2.00893C47.8563 3.34821 48.5333 4.96429 48.5333 6.85714Z" fill="#794482"/>
</svg>
