<svg width="53" height="35" viewBox="0 0 53 35" fill="none" xmlns="http://www.w3.org/2000/svg">
<path fill-rule="evenodd" clip-rule="evenodd" d="M9.50688 17.0168L16.0325 24.1022C16.2766 24.3491 16.4724 24.6469 16.6082 24.9778C16.7439 25.3087 16.8169 25.6659 16.8228 26.0281C16.8287 26.3903 16.7674 26.7501 16.6424 27.0859C16.5175 27.4218 16.3315 27.7269 16.0956 27.9831C15.8597 28.2392 15.5786 28.4412 15.2693 28.5768C14.9599 28.7125 14.6286 28.7791 14.295 28.7727C13.9614 28.7663 13.6325 28.6871 13.3277 28.5396C13.023 28.3922 12.7487 28.1796 12.5212 27.9146L1.75562 16.2255L0 14.3193L1.75562 12.4131L12.5212 0.723975C12.9922 0.247492 13.6151 -0.0119098 14.2587 0.000420257C14.9024 0.0127503 15.5164 0.295849 15.9716 0.790075C16.4268 1.2843 16.6875 1.95107 16.6989 2.6499C16.7102 3.34873 16.4713 4.02507 16.0325 4.53642L9.50688 11.6218H42.2344C45.0896 11.6218 47.8279 12.8533 49.8468 15.0455C51.8658 17.2376 53 20.2108 53 23.3109C53 26.411 51.8658 29.3842 49.8468 31.5763C47.8279 33.7685 45.0896 35 42.2344 35H35.6094C34.9505 35 34.3186 34.7158 33.8527 34.2099C33.3867 33.704 33.125 33.0179 33.125 32.3025C33.125 31.5871 33.3867 30.901 33.8527 30.3951C34.3186 29.8892 34.9505 29.605 35.6094 29.605H42.2344C43.7718 29.605 45.2463 28.9419 46.3334 27.7615C47.4205 26.5812 48.0312 24.9802 48.0312 23.3109C48.0312 21.6416 47.4205 20.0407 46.3334 18.8603C45.2463 17.6799 43.7718 17.0168 42.2344 17.0168H9.50688Z" fill="#263238"/>
</svg>
