<svg width="50" height="53" viewBox="0 0 50 53" fill="none" xmlns="http://www.w3.org/2000/svg">
<path fill-rule="evenodd" clip-rule="evenodd" d="M28.3902 11.7521C28.3902 14.6856 27.3036 17.499 25.3695 19.5733C23.4354 21.6477 20.8121 22.813 18.0768 22.813C15.3416 22.813 12.7183 21.6477 10.7842 19.5733C8.85009 17.499 7.7635 14.6856 7.7635 11.7521C7.7635 8.81855 8.85009 6.00516 10.7842 3.93083C12.7183 1.85651 15.3416 0.691162 18.0768 0.691162C20.8121 0.691162 23.4354 1.85651 25.3695 3.93083C27.3036 6.00516 28.3902 8.81855 28.3902 11.7521ZM37.8441 28.3435C38.5279 28.3435 39.1837 28.6348 39.6673 29.1534C40.1508 29.672 40.4224 30.3753 40.4224 31.1087V37.5609H46.4386C47.1224 37.5609 47.7782 37.8522 48.2617 38.3708C48.7452 38.8894 49.0169 39.5928 49.0169 40.3261C49.0169 41.0595 48.7452 41.7629 48.2617 42.2815C47.7782 42.8 47.1224 43.0914 46.4386 43.0914H40.4224V49.5436C40.4224 50.277 40.1508 50.9803 39.6673 51.4989C39.1837 52.0175 38.5279 52.3088 37.8441 52.3088C37.1603 52.3088 36.5045 52.0175 36.0209 51.4989C35.5374 50.9803 35.2658 50.277 35.2658 49.5436V43.0914H29.2496C28.5658 43.0914 27.91 42.8 27.4265 42.2815C26.9429 41.7629 26.6713 41.0595 26.6713 40.3261C26.6713 39.5928 26.9429 38.8894 27.4265 38.3708C27.91 37.8522 28.5658 37.5609 29.2496 37.5609H35.2658V31.1087C35.2658 30.3753 35.5374 29.672 36.0209 29.1534C36.5045 28.6348 37.1603 28.3435 37.8441 28.3435ZM18.0768 26.5C23.2095 26.5 27.8195 28.915 30.9685 32.742V32.9522H29.2496C27.7248 32.9508 26.2429 33.493 25.0368 34.4935C23.8307 35.4941 22.969 36.8963 22.5871 38.4795C22.2053 40.0627 22.325 41.7372 22.9274 43.2395C23.5298 44.7418 24.5808 45.9866 25.915 46.7783H2.60683C2.15095 46.7783 1.71375 46.5841 1.39139 46.2384C1.06904 45.8927 0.887939 45.4238 0.887939 44.9349C0.887939 40.0456 2.69891 35.3566 5.92245 31.8994C9.146 28.4422 13.5181 26.5 18.0768 26.5Z" fill="#794482"/>
</svg>
