<svg width="72" height="67" viewBox="0 0 72 67" fill="none" xmlns="http://www.w3.org/2000/svg">
<path d="M22.2375 33.5C18.1875 33.6246 14.875 35.2199 12.3 38.2857H7.275C5.225 38.2857 3.5 37.781 2.1 36.7715C0.7 35.762 0 34.2852 0 32.341C0 23.5422 1.55 19.1429 4.65 19.1429C4.8 19.1429 5.34375 19.4046 6.28125 19.928C7.21875 20.4515 8.4375 20.9811 9.9375 21.517C11.4375 22.0529 12.925 22.3209 14.4 22.3209C16.075 22.3209 17.7375 22.0342 19.3875 21.4609C19.2625 22.3832 19.2 23.2057 19.2 23.9286C19.2 27.3932 20.2125 30.5837 22.2375 33.5ZM62.4 57.3164C62.4 60.3075 61.4875 62.6692 59.6625 64.4015C57.8375 66.1338 55.4125 67 52.3875 67H19.6125C16.5875 67 14.1625 66.1338 12.3375 64.4015C10.5125 62.6692 9.6 60.3075 9.6 57.3164C9.6 55.9953 9.64375 54.7054 9.73125 53.4467C9.81875 52.188 9.99375 50.8295 10.2563 49.3714C10.5188 47.9132 10.85 46.561 11.25 45.3147C11.65 44.0685 12.1875 42.8533 12.8625 41.6694C13.5375 40.4854 14.3125 39.4759 15.1875 38.6409C16.0625 37.8059 17.1313 37.1391 18.3938 36.6406C19.6562 36.1421 21.05 35.8929 22.575 35.8929C22.825 35.8929 23.3625 36.1608 24.1875 36.6967C25.0125 37.2326 25.925 37.8308 26.925 38.4913C27.925 39.1519 29.2625 39.7501 30.9375 40.286C32.6125 40.8219 34.3 41.0898 36 41.0898C37.7 41.0898 39.3875 40.8219 41.0625 40.286C42.7375 39.7501 44.075 39.1519 45.075 38.4913C46.075 37.8308 46.9875 37.2326 47.8125 36.6967C48.6375 36.1608 49.175 35.8929 49.425 35.8929C50.95 35.8929 52.3438 36.1421 53.6063 36.6406C54.8688 37.1391 55.9375 37.8059 56.8125 38.6409C57.6875 39.4759 58.4625 40.4854 59.1375 41.6694C59.8125 42.8533 60.35 44.0685 60.75 45.3147C61.15 46.561 61.4813 47.9132 61.7438 49.3714C62.0063 50.8295 62.1813 52.188 62.2688 53.4467C62.3563 54.7054 62.4 55.9953 62.4 57.3164ZM24 9.57143C24 12.2135 23.0625 14.4693 21.1875 16.3387C19.3125 18.2081 17.05 19.1429 14.4 19.1429C11.75 19.1429 9.4875 18.2081 7.6125 16.3387C5.7375 14.4693 4.8 12.2135 4.8 9.57143C4.8 6.92932 5.7375 4.67355 7.6125 2.80413C9.4875 0.93471 11.75 0 14.4 0C17.05 0 19.3125 0.93471 21.1875 2.80413C23.0625 4.67355 24 6.92932 24 9.57143ZM50.4 23.9286C50.4 27.8917 48.9938 31.2754 46.1813 34.0795C43.3688 36.8836 39.975 38.2857 36 38.2857C32.025 38.2857 28.6313 36.8836 25.8188 34.0795C23.0063 31.2754 21.6 27.8917 21.6 23.9286C21.6 19.9654 23.0063 16.5818 25.8188 13.7776C28.6313 10.9735 32.025 9.57143 36 9.57143C39.975 9.57143 43.3688 10.9735 46.1813 13.7776C48.9938 16.5818 50.4 19.9654 50.4 23.9286ZM72 32.341C72 34.2852 71.3 35.762 69.9 36.7715C68.5 37.781 66.775 38.2857 64.725 38.2857H59.7C57.125 35.2199 53.8125 33.6246 49.7625 33.5C51.7875 30.5837 52.8 27.3932 52.8 23.9286C52.8 23.2057 52.7375 22.3832 52.6125 21.4609C54.2625 22.0342 55.925 22.3209 57.6 22.3209C59.075 22.3209 60.5625 22.0529 62.0625 21.517C63.5625 20.9811 64.7812 20.4515 65.7188 19.928C66.6562 19.4046 67.2 19.1429 67.35 19.1429C70.45 19.1429 72 23.5422 72 32.341ZM67.2 9.57143C67.2 12.2135 66.2625 14.4693 64.3875 16.3387C62.5125 18.2081 60.25 19.1429 57.6 19.1429C54.95 19.1429 52.6875 18.2081 50.8125 16.3387C48.9375 14.4693 48 12.2135 48 9.57143C48 6.92932 48.9375 4.67355 50.8125 2.80413C52.6875 0.93471 54.95 0 57.6 0C60.25 0 62.5125 0.93471 64.3875 2.80413C66.2625 4.67355 67.2 6.92932 67.2 9.57143Z" fill="#794482"/>
</svg>
