<svg width="28" height="33" viewBox="0 0 28 33" fill="none" xmlns="http://www.w3.org/2000/svg">
<path fill-rule="evenodd" clip-rule="evenodd" d="M22.3334 0.25C23.6595 0.25 24.9313 0.763615 25.8689 1.67785C26.8066 2.59209 27.3334 3.83207 27.3334 5.125V31.125C27.3332 31.4311 27.2444 31.7309 27.0771 31.9898C26.9098 32.2488 26.671 32.4565 26.388 32.589C26.105 32.7214 25.7894 32.7732 25.4775 32.7385C25.1656 32.7037 24.8701 32.5838 24.6251 32.3925L21.5001 29.955L18.3751 32.3925C18.0549 32.6426 17.6514 32.7687 17.2418 32.7468C16.8322 32.725 16.4453 32.5566 16.1551 32.2739L14.0001 30.1727L11.8451 32.2739C11.5551 32.5568 11.1683 32.7255 10.7587 32.7477C10.349 32.7699 9.94543 32.644 9.62508 32.3941L6.50008 29.955L3.37508 32.3925C3.13003 32.5838 2.83456 32.7037 2.52268 32.7385C2.2108 32.7732 1.89519 32.7214 1.6122 32.589C1.3292 32.4565 1.09032 32.2488 0.923052 31.9898C0.755788 31.7309 0.666944 31.4311 0.666748 31.125V5.125C0.666748 3.83207 1.19353 2.59209 2.13121 1.67785C3.0689 0.763615 4.34067 0.25 5.66675 0.25H22.3334ZM14.0001 16.5H9.00008C8.55805 16.5 8.13413 16.6712 7.82157 16.976C7.50901 17.2807 7.33341 17.694 7.33341 18.125C7.33341 18.556 7.50901 18.9693 7.82157 19.274C8.13413 19.5788 8.55805 19.75 9.00008 19.75H14.0001C14.4421 19.75 14.866 19.5788 15.1786 19.274C15.4912 18.9693 15.6667 18.556 15.6667 18.125C15.6667 17.694 15.4912 17.2807 15.1786 16.976C14.866 16.6712 14.4421 16.5 14.0001 16.5ZM19.0001 10H9.00008C8.57528 10.0005 8.16669 10.1591 7.8578 10.4434C7.54891 10.7277 7.36302 11.1163 7.33813 11.5298C7.31323 11.9432 7.4512 12.3504 7.72386 12.668C7.99651 12.9856 8.38326 13.1897 8.80508 13.2386L9.00008 13.25H19.0001C19.4249 13.2495 19.8335 13.0909 20.1424 12.8066C20.4513 12.5223 20.6371 12.1337 20.662 11.7202C20.6869 11.3068 20.549 10.8996 20.2763 10.582C20.0037 10.2644 19.6169 10.0603 19.1951 10.0114L19.0001 10Z" fill="#794482"/>
</svg>
