<svg width="62" height="45" viewBox="0 0 62 45" fill="none" xmlns="http://www.w3.org/2000/svg">
<path d="M16.75 22.5C16.75 21.9779 17.0002 21.4771 17.4456 21.1079C17.891 20.7387 18.4951 20.5312 19.125 20.5312H40.5V7.73438C40.5 3.79688 35.4843 0.84375 31 0.84375H8.4375C6.23361 0.845704 4.12066 1.57231 2.56228 2.86413C1.00389 4.15595 0.127358 5.90747 0.125 7.73438V37.2656C0.127358 39.0925 1.00389 40.8441 2.56228 42.1359C4.12066 43.4277 6.23361 44.1543 8.4375 44.1562H32.1875C34.3914 44.1543 36.5043 43.4277 38.0627 42.1359C39.6211 40.8441 40.4976 39.0925 40.5 37.2656V24.4688H19.125C18.4951 24.4688 17.891 24.2613 17.4456 23.8921C17.0002 23.5229 16.75 23.0221 16.75 22.5ZM61.1788 21.1083L49.3038 11.2646C48.8548 10.911 48.2569 10.7167 47.6376 10.7233C47.0183 10.7299 46.4266 10.9367 45.9886 11.2998C45.5507 11.6628 45.3011 12.1533 45.2932 12.6667C45.2853 13.1801 45.5196 13.6757 45.9462 14.0479L53.7659 20.5312H40.5V24.4688H53.7659L45.9462 30.9521C45.7164 31.1331 45.5326 31.3504 45.4056 31.5912C45.2787 31.832 45.2113 32.0914 45.2072 32.3542C45.2031 32.6169 45.2626 32.8777 45.382 33.1211C45.5015 33.3646 45.6785 33.5857 45.9026 33.7715C46.1268 33.9573 46.3935 34.1041 46.6872 34.2031C46.9808 34.3021 47.2954 34.3513 47.6124 34.348C47.9294 34.3446 48.2424 34.2887 48.5328 34.1835C48.8233 34.0783 49.0855 33.9259 49.3038 33.7354L61.1788 23.8917C61.6239 23.5225 61.8739 23.0219 61.8739 22.5C61.8739 21.9781 61.6239 21.4775 61.1788 21.1083Z" fill="#BA68C8"/>
</svg>
